<?xml version="1.0" standalone="no"?><!DOCTYPE svg PUBLIC "-//W3C//DTD SVG 1.1//EN" "http://www.w3.org/Graphics/SVG/1.1/DTD/svg11.dtd"><svg t="1739520110640" class="icon" viewBox="0 0 1024 1024" version="1.1" xmlns="http://www.w3.org/2000/svg" p-id="6774" xmlns:xlink="http://www.w3.org/1999/xlink" width="200" height="200"><path d="M288 352v192h128v64h-128v64h192v-320h-192z m128 128h-64v-64h64v64zM544 352v320h192v-320h-192z m128 256h-64v-192h64v192zM957.44 531.84h1.344v-1.92l-1.344 1.92z" p-id="6775" fill="#13227a"></path><path d="M46.72 474.88l35.84 55.04 1.28 1.92 35.84 55.04 60.16-119.04-32 1.92C168.96 277.76 331.52 128 529.28 128c211.904 0 384 172.16 384 384s-172.096 384-384 384c-140.16 0-263.04-75.52-329.6-188.16h-1.92l-0.64 0.64-53.12 31.36A446.592 446.592 0 0 0 529.28 960c247.744 0 448-200.32 448-448s-200.256-448-448-448C294.4 64 102.4 243.84 83.2 472.96l-36.48 1.92z" p-id="6776" fill="#13227a"></path></svg>