<?xml version="1.0" standalone="no"?><!DOCTYPE svg PUBLIC "-//W3C//DTD SVG 1.1//EN" "http://www.w3.org/Graphics/SVG/1.1/DTD/svg11.dtd"><svg t="1739523084208" class="icon" viewBox="0 0 1024 1024" version="1.1" xmlns="http://www.w3.org/2000/svg" p-id="7797" xmlns:xlink="http://www.w3.org/1999/xlink" width="200" height="200"><path d="M512 163.84a348.16 348.16 0 1 0 246.1696 594.3296l50.688 50.688a419.84 419.84 0 1 1 0-593.7664c18.432 18.432 47.104 49.6128 70.7072 75.6736a7094.3744 7094.3744 0 0 1 39.8336 44.2368l3.3792 3.84-53.5552 47.616-3.3792-3.7376a5827.9936 5827.9936 0 0 0-39.3728-43.8272 2476.8512 2476.8512 0 0 0-68.3008-73.1136A346.9824 346.9824 0 0 0 512 163.84z" fill="#13227a" p-id="7798"></path><path d="M860.16 326.8096v-156.16h71.68v227.84h-227.84v-71.68h156.16z" fill="#13227a" p-id="7799"></path></svg>