<?xml version="1.0" standalone="no"?><!DOCTYPE svg PUBLIC "-//W3C//DTD SVG 1.1//EN" "http://www.w3.org/Graphics/SVG/1.1/DTD/svg11.dtd"><svg t="1739520103457" class="icon" viewBox="0 0 1024 1024" version="1.1" xmlns="http://www.w3.org/2000/svg" p-id="6575" xmlns:xlink="http://www.w3.org/1999/xlink" width="200" height="200"><path d="M288 352v192h128v64h-128v64h192v-320h-192z m128 128h-64v-64h64v64zM544 352v320h192v-320h-192z m128 256h-64v-192h64v192zM957.44 531.84h1.344v-1.92l-1.344 1.92z" p-id="6576" fill="#13227a"></path><path d="M994.56 474.88l-35.84 55.04-1.28 1.92-35.84 55.04-60.16-119.04 32 1.92C872.32 277.76 709.76 128 512 128 300.16 128 128 300.16 128 512s172.16 384 384 384c140.16 0 263.04-75.52 329.6-188.16h1.856l0.704 0.704 53.056 31.296A446.4 446.4 0 0 1 512 960c-247.68 0-448-200.32-448-448s200.32-448 448-448c234.88 0 426.88 179.84 446.08 408.96l36.48 1.92z" p-id="6577" fill="#13227a"></path></svg>